<svg xmlns="http://www.w3.org/2000/svg" xmlns:xlink="http://www.w3.org/1999/xlink" width="150" zoomAndPan="magnify" viewBox="0 0 112.5 74.999997" height="100" preserveAspectRatio="xMidYMid meet" version="1.2"><defs><clipPath id="644ca442e7"><path d="M 35 46 L 110.085938 46 L 110.085938 67.835938 L 35 67.835938 Z M 35 46 "/></clipPath><clipPath id="4677afeeb0"><path d="M 1.816406 22 L 42 22 L 42 54 L 1.816406 54 Z M 1.816406 22 "/></clipPath><clipPath id="761bcebef9"><path d="M 34 7.355469 L 74 7.355469 L 74 32 L 34 32 Z M 34 7.355469 "/></clipPath></defs><g id="8ce8d1a3da"><g clip-rule="nonzero" clip-path="url(#644ca442e7)"><path style=" stroke:none;fill-rule:nonzero;fill:#1e466a;fill-opacity:1;" d="M 89.113281 57.140625 C 89.113281 51.34375 93.808594 46.648438 99.609375 46.648438 C 105.40625 46.648438 110.101562 51.34375 110.101562 57.140625 C 110.101562 62.941406 105.40625 67.636719 99.609375 67.636719 C 93.808594 67.636719 89.113281 62.941406 89.113281 57.140625 Z M 45.882812 67.636719 C 51.679688 67.636719 56.375 62.941406 56.375 57.140625 C 56.375 51.34375 51.679688 46.648438 45.882812 46.648438 C 40.082031 46.648438 35.386719 51.34375 35.386719 57.140625 C 35.386719 62.941406 40.105469 67.636719 45.882812 67.636719 Z M 45.882812 67.636719 "/></g><path style=" stroke:none;fill-rule:nonzero;fill:#dadada;fill-opacity:1;" d="M 86.367188 59.21875 C 84.136719 53.355469 86.410156 46.582031 91.992188 43.316406 C 97.574219 40.046875 104.605469 41.410156 108.609375 46.238281 Z M 86.367188 59.21875 "/><path style=" stroke:none;fill-rule:nonzero;fill:#1e466a;fill-opacity:1;" d="M 65.203125 38.945312 C 60.421875 47.40625 66.675781 51.925781 66.675781 51.925781 L 79.917969 51.925781 C 81.585938 51.300781 85.261719 47.578125 87.644531 42.0625 C 90.023438 36.542969 81.757812 19.253906 81.757812 19.253906 C 85.261719 14.839844 94.371094 16.851562 94.371094 16.851562 L 94.371094 26.242188 L 89.113281 24.773438 L 96.664062 40.222656 L 82.6875 57.140625 L 33.742188 57.140625 L 43.871094 38.945312 Z M 65.203125 38.945312 "/><path style=" stroke:none;fill-rule:nonzero;fill:#f49619;fill-opacity:1;" d="M 94.371094 57.140625 C 94.371094 54.265625 96.710938 51.925781 99.585938 51.925781 C 102.464844 51.925781 104.800781 54.265625 104.800781 57.140625 C 104.800781 60.019531 102.464844 62.355469 99.585938 62.355469 C 96.710938 62.355469 94.371094 60.019531 94.371094 57.140625 Z M 45.882812 62.355469 C 48.761719 62.355469 51.097656 60.019531 51.097656 57.140625 C 51.097656 54.265625 48.761719 51.925781 45.882812 51.925781 C 43.003906 51.925781 40.667969 54.265625 40.667969 57.140625 C 40.667969 60.019531 43.003906 62.355469 45.882812 62.355469 Z M 45.882812 62.355469 "/><path style=" stroke:none;fill-rule:nonzero;fill:#dadada;fill-opacity:1;" d="M 68.6875 38.945312 L 39.085938 38.945312 L 39.085938 33.234375 L 68.710938 33.234375 L 68.710938 38.945312 Z M 47.546875 42.0625 C 39.5625 42.0625 31.167969 48.941406 31.167969 57.421875 L 60.054688 57.421875 C 60.054688 47.039062 58.128906 42.0625 47.546875 42.0625 Z M 47.546875 42.0625 "/><g clip-rule="nonzero" clip-path="url(#4677afeeb0)"><path style=" stroke:none;fill-rule:nonzero;fill:#f49619;fill-opacity:1;" d="M 35.410156 40.804688 L 17.558594 40.804688 C 17.234375 40.804688 16.972656 40.546875 16.972656 40.222656 C 16.972656 39.898438 17.234375 39.636719 17.558594 39.636719 L 35.410156 39.636719 C 35.734375 39.636719 35.992188 39.898438 35.992188 40.222656 C 35.992188 40.546875 35.734375 40.804688 35.410156 40.804688 Z M 30.109375 45.003906 C 30.109375 44.679688 29.847656 44.417969 29.523438 44.417969 L 2.476562 44.417969 C 2.152344 44.417969 1.890625 44.679688 1.890625 45.003906 C 1.890625 45.328125 2.152344 45.585938 2.476562 45.585938 L 29.523438 45.585938 C 29.847656 45.585938 30.109375 45.328125 30.109375 45.003906 Z M 35.992188 53.289062 C 35.992188 52.964844 35.734375 52.707031 35.410156 52.707031 L 13.144531 52.707031 C 12.820312 52.707031 12.558594 52.964844 12.558594 53.289062 C 12.558594 53.617188 12.820312 53.875 13.144531 53.875 L 35.410156 53.875 C 35.734375 53.875 35.992188 53.617188 35.992188 53.289062 Z M 41.25 49.742188 C 41.25 49.417969 40.992188 49.15625 40.667969 49.15625 L 20.695312 49.15625 C 20.371094 49.15625 20.113281 49.417969 20.113281 49.742188 C 20.113281 50.066406 20.371094 50.328125 20.695312 50.328125 L 40.667969 50.328125 C 40.992188 50.328125 41.25 50.066406 41.25 49.742188 Z M 34.15625 27.910156 C 34.15625 27.585938 33.894531 27.324219 33.570312 27.324219 L 7.820312 27.324219 C 7.496094 27.324219 7.238281 27.585938 7.238281 27.910156 C 7.238281 28.234375 7.496094 28.492188 7.820312 28.492188 L 33.570312 28.492188 C 33.894531 28.492188 34.15625 28.234375 34.15625 27.910156 Z M 31.753906 22.761719 C 31.753906 22.433594 31.492188 22.175781 31.167969 22.175781 L 21.972656 22.175781 C 21.648438 22.175781 21.386719 22.433594 21.386719 22.761719 C 21.386719 23.085938 21.648438 23.34375 21.972656 23.34375 L 31.167969 23.34375 C 31.492188 23.34375 31.753906 23.085938 31.753906 22.761719 Z M 31.753906 22.761719 "/></g><g clip-rule="nonzero" clip-path="url(#761bcebef9)"><path style=" stroke:none;fill-rule:nonzero;fill:#f49619;fill-opacity:1;" d="M 73.296875 31.003906 L 34.480469 31.003906 C 34.480469 20.964844 42.09375 12.699219 51.875 11.703125 C 51.484375 11.25 51.25 10.644531 51.25 9.992188 C 51.25 8.542969 52.4375 7.355469 53.886719 7.355469 C 55.335938 7.355469 56.527344 8.542969 56.527344 9.992188 C 56.527344 10.644531 56.289062 11.226562 55.898438 11.703125 C 65.679688 12.699219 73.296875 20.964844 73.296875 31.003906 Z M 73.296875 31.003906 "/></g></g></svg>

