<svg xmlns="http://www.w3.org/2000/svg" xmlns:xlink="http://www.w3.org/1999/xlink" width="500" zoomAndPan="magnify" viewBox="0 0 375 112.499997" height="150" preserveAspectRatio="xMidYMid meet" version="1.2"><defs><clipPath id="bee7eb9aa2"><path d="M 50 67 L 158 67 L 158 97.070312 L 50 97.070312 Z M 50 67 "/></clipPath><clipPath id="d554fa1b54"><path d="M 2.855469 32 L 60 32 L 60 78 L 2.855469 78 Z M 2.855469 32 "/></clipPath><clipPath id="31d44d5d81"><path d="M 49 11.199219 L 106 11.199219 L 106 46 L 49 46 Z M 49 11.199219 "/></clipPath></defs><g id="276eea3e49"><g clip-rule="nonzero" clip-path="url(#bee7eb9aa2)"><path style=" stroke:none;fill-rule:nonzero;fill:#2f5972;fill-opacity:1;" d="M 127.710938 82.410156 C 127.710938 74.117188 134.425781 67.398438 142.71875 67.398438 C 151.015625 67.398438 157.730469 74.117188 157.730469 82.410156 C 157.730469 90.703125 151.015625 97.417969 142.71875 97.417969 C 134.425781 97.417969 127.710938 90.703125 127.710938 82.410156 Z M 65.878906 97.417969 C 74.171875 97.417969 80.886719 90.703125 80.886719 82.410156 C 80.886719 74.117188 74.171875 67.398438 65.878906 67.398438 C 57.585938 67.398438 50.871094 74.117188 50.871094 82.410156 C 50.871094 90.703125 57.617188 97.417969 65.878906 97.417969 Z M 65.878906 97.417969 "/></g><path style=" stroke:none;fill-rule:nonzero;fill:#dadada;fill-opacity:1;" d="M 123.78125 85.378906 C 120.59375 76.992188 123.84375 67.308594 131.828125 62.632812 C 139.8125 57.960938 149.867188 59.910156 155.59375 66.8125 Z M 123.78125 85.378906 "/><path style=" stroke:none;fill-rule:nonzero;fill:#2f5972;fill-opacity:1;" d="M 93.515625 56.382812 C 86.675781 68.484375 95.617188 74.949219 95.617188 74.949219 L 114.558594 74.949219 C 116.941406 74.054688 122.203125 68.730469 125.605469 60.839844 C 129.011719 52.949219 117.1875 28.222656 117.1875 28.222656 C 122.203125 21.90625 135.230469 24.785156 135.230469 24.785156 L 135.230469 38.21875 L 127.710938 36.113281 L 138.511719 58.207031 L 118.519531 82.410156 L 48.515625 82.410156 L 63 56.382812 Z M 93.515625 56.382812 "/><path style=" stroke:none;fill-rule:nonzero;fill:#f49619;fill-opacity:1;" d="M 135.230469 82.410156 C 135.230469 78.292969 138.574219 74.949219 142.6875 74.949219 C 146.804688 74.949219 150.148438 78.292969 150.148438 82.410156 C 150.148438 86.523438 146.804688 89.867188 142.6875 89.867188 C 138.574219 89.867188 135.230469 86.523438 135.230469 82.410156 Z M 65.878906 89.867188 C 69.996094 89.867188 73.335938 86.523438 73.335938 82.410156 C 73.335938 78.292969 69.996094 74.949219 65.878906 74.949219 C 61.761719 74.949219 58.421875 78.292969 58.421875 82.410156 C 58.421875 86.523438 61.761719 89.867188 65.878906 89.867188 Z M 65.878906 89.867188 "/><path style=" stroke:none;fill-rule:nonzero;fill:#dadada;fill-opacity:1;" d="M 98.496094 56.382812 L 56.160156 56.382812 L 56.160156 48.210938 L 98.527344 48.210938 L 98.527344 56.382812 Z M 68.261719 60.839844 C 56.84375 60.839844 44.835938 70.679688 44.835938 82.8125 L 86.148438 82.8125 C 86.148438 67.957031 83.394531 60.839844 68.261719 60.839844 Z M 68.261719 60.839844 "/><g clip-rule="nonzero" clip-path="url(#d554fa1b54)"><path style=" stroke:none;fill-rule:nonzero;fill:#f49619;fill-opacity:1;" d="M 50.898438 59.042969 L 25.367188 59.042969 C 24.90625 59.042969 24.535156 58.671875 24.535156 58.207031 C 24.535156 57.746094 24.90625 57.375 25.367188 57.375 L 50.898438 57.375 C 51.363281 57.375 51.734375 57.746094 51.734375 58.207031 C 51.734375 58.671875 51.363281 59.042969 50.898438 59.042969 Z M 43.316406 65.046875 C 43.316406 64.582031 42.945312 64.210938 42.484375 64.210938 L 3.800781 64.210938 C 3.335938 64.210938 2.964844 64.582031 2.964844 65.046875 C 2.964844 65.511719 3.335938 65.882812 3.800781 65.882812 L 42.484375 65.882812 C 42.945312 65.882812 43.316406 65.511719 43.316406 65.046875 Z M 51.734375 76.902344 C 51.734375 76.4375 51.363281 76.066406 50.898438 76.066406 L 19.054688 76.066406 C 18.589844 76.066406 18.21875 76.4375 18.21875 76.902344 C 18.21875 77.363281 18.589844 77.734375 19.054688 77.734375 L 50.898438 77.734375 C 51.363281 77.734375 51.734375 77.363281 51.734375 76.902344 Z M 59.257812 71.824219 C 59.257812 71.359375 58.882812 70.988281 58.421875 70.988281 L 29.855469 70.988281 C 29.390625 70.988281 29.019531 71.359375 29.019531 71.824219 C 29.019531 72.289062 29.390625 72.660156 29.855469 72.660156 L 58.421875 72.660156 C 58.882812 72.660156 59.257812 72.289062 59.257812 71.824219 Z M 49.105469 40.601562 C 49.105469 40.136719 48.734375 39.765625 48.269531 39.765625 L 11.441406 39.765625 C 10.980469 39.765625 10.605469 40.136719 10.605469 40.601562 C 10.605469 41.0625 10.980469 41.433594 11.441406 41.433594 L 48.269531 41.433594 C 48.734375 41.433594 49.105469 41.0625 49.105469 40.601562 Z M 45.671875 33.234375 C 45.671875 32.769531 45.300781 32.398438 44.835938 32.398438 L 31.683594 32.398438 C 31.21875 32.398438 30.847656 32.769531 30.847656 33.234375 C 30.847656 33.699219 31.21875 34.070312 31.683594 34.070312 L 44.835938 34.070312 C 45.300781 34.070312 45.671875 33.699219 45.671875 33.234375 Z M 45.671875 33.234375 "/></g><g clip-rule="nonzero" clip-path="url(#31d44d5d81)"><path style=" stroke:none;fill-rule:nonzero;fill:#f49619;fill-opacity:1;" d="M 105.089844 45.023438 L 49.570312 45.023438 C 49.570312 30.664062 60.460938 18.84375 74.449219 17.421875 C 73.894531 16.769531 73.554688 15.902344 73.554688 14.976562 C 73.554688 12.902344 75.253906 11.199219 77.328125 11.199219 C 79.402344 11.199219 81.105469 12.902344 81.105469 14.976562 C 81.105469 15.902344 80.765625 16.738281 80.207031 17.421875 C 94.195312 18.84375 105.089844 30.664062 105.089844 45.023438 Z M 105.089844 45.023438 "/></g><g style="fill:#fffcf4;fill-opacity:1;"><g transform="translate(173.049026, 77.948106)"><path style="stroke:none" d="M 0.984375 0 L 17.765625 -47.375 L 30.796875 -47.375 L 47.578125 0 L 35 0 L 31.84375 -9.171875 L 16.90625 -9.171875 L 13.703125 0 Z M 19.59375 -20.046875 L 28.96875 -20.046875 L 24.3125 -35.1875 Z M 19.59375 -20.046875 "/></g></g><g style="fill:#fffcf4;fill-opacity:1;"><g transform="translate(221.608984, 77.948106)"><path style="stroke:none" d="M 4.421875 -47.375 L 17.171875 -47.375 L 17.171875 -10.484375 L 36.109375 -10.484375 L 36.109375 0 L 4.421875 0 Z M 4.421875 -47.375 "/></g></g><g style="fill:#fffcf4;fill-opacity:1;"><g transform="translate(259.487067, 77.948106)"><path style="stroke:none" d="M 0.984375 -36.171875 L 0.984375 -47.375 L 40.765625 -47.375 L 40.765625 -36.171875 L 27.203125 -36.171875 L 27.203125 0 L 14.421875 0 L 14.421875 -36.171875 Z M 0.984375 -36.171875 "/></g></g><g style="fill:#fffcf4;fill-opacity:1;"><g transform="translate(301.231598, 77.948106)"><path style="stroke:none" d="M 25.78125 0.65625 C 21.082031 0.65625 17.015625 -0.34375 13.578125 -2.34375 C 10.140625 -4.34375 7.476562 -7.15625 5.59375 -10.78125 C 3.71875 -14.40625 2.78125 -18.675781 2.78125 -23.59375 C 2.78125 -28.53125 3.734375 -32.828125 5.640625 -36.484375 C 7.554688 -40.140625 10.238281 -42.976562 13.6875 -45 C 17.144531 -47.019531 21.175781 -48.03125 25.78125 -48.03125 C 30.375 -48.03125 34.382812 -47.019531 37.8125 -45 C 41.238281 -42.976562 43.898438 -40.140625 45.796875 -36.484375 C 47.703125 -32.828125 48.65625 -28.53125 48.65625 -23.59375 C 48.65625 -18.695312 47.71875 -14.429688 45.84375 -10.796875 C 43.976562 -7.160156 41.332031 -4.34375 37.90625 -2.34375 C 34.476562 -0.34375 30.4375 0.65625 25.78125 0.65625 Z M 25.78125 -9.5625 C 27.53125 -9.5625 29.085938 -10.003906 30.453125 -10.890625 C 31.816406 -11.773438 32.882812 -13.226562 33.65625 -15.25 C 34.4375 -17.269531 34.828125 -19.984375 34.828125 -23.390625 C 34.828125 -26.910156 34.4375 -29.722656 33.65625 -31.828125 C 32.882812 -33.941406 31.816406 -35.46875 30.453125 -36.40625 C 29.085938 -37.34375 27.53125 -37.8125 25.78125 -37.8125 C 24.039062 -37.8125 22.484375 -37.34375 21.109375 -36.40625 C 19.742188 -35.46875 18.664062 -33.941406 17.875 -31.828125 C 17.09375 -29.722656 16.703125 -26.910156 16.703125 -23.390625 C 16.703125 -19.984375 17.09375 -17.269531 17.875 -15.25 C 18.664062 -13.226562 19.742188 -11.773438 21.109375 -10.890625 C 22.484375 -10.003906 24.039062 -9.5625 25.78125 -9.5625 Z M 25.78125 -9.5625 "/></g></g></g></svg>