<svg xmlns="http://www.w3.org/2000/svg" xmlns:xlink="http://www.w3.org/1999/xlink" width="500" zoomAndPan="magnify" viewBox="0 0 375 112.499997" height="150" preserveAspectRatio="xMidYMid meet" version="1.2"><defs><clipPath id="106871a893"><path d="M 48 57 L 155.816406 57 L 155.816406 87.132812 L 48 87.132812 Z M 48 57 "/></clipPath><clipPath id="f93e432696"><path d="M 0.855469 22 L 58 22 L 58 68 L 0.855469 68 Z M 0.855469 22 "/></clipPath><clipPath id="83e642a07c"><path d="M 47 1.199219 L 104 1.199219 L 104 36 L 47 36 Z M 47 1.199219 "/></clipPath><clipPath id="e0335387fc"><path d="M 170 6 L 351.261719 6 L 351.261719 84 L 170 84 Z M 170 6 "/></clipPath><clipPath id="b0a09f0d57"><rect x="0" width="182" y="0" height="78"/></clipPath><clipPath id="e67d7f8599"><rect x="0" width="352" y="0" height="88"/></clipPath></defs><g id="4e907df108"><g transform="matrix(1,0,0,1,2,10)"><g clip-path="url(#e67d7f8599)"><g clip-rule="nonzero" clip-path="url(#106871a893)"><path style=" stroke:none;fill-rule:nonzero;fill:#1e466a;fill-opacity:1;" d="M 125.710938 72.410156 C 125.710938 64.117188 132.425781 57.402344 140.722656 57.402344 C 149.015625 57.402344 155.730469 64.117188 155.730469 72.410156 C 155.730469 80.703125 149.015625 87.417969 140.722656 87.417969 C 132.425781 87.417969 125.710938 80.703125 125.710938 72.410156 Z M 63.878906 87.417969 C 72.171875 87.417969 78.886719 80.703125 78.886719 72.410156 C 78.886719 64.117188 72.171875 57.402344 63.878906 57.402344 C 55.585938 57.402344 48.867188 64.117188 48.867188 72.410156 C 48.867188 80.703125 55.617188 87.417969 63.878906 87.417969 Z M 63.878906 87.417969 "/></g><path style=" stroke:none;fill-rule:nonzero;fill:#dadada;fill-opacity:1;" d="M 121.78125 75.382812 C 118.59375 66.996094 121.84375 57.308594 129.828125 52.632812 C 137.8125 47.960938 147.871094 49.910156 153.59375 56.8125 Z M 121.78125 75.382812 "/><path style=" stroke:none;fill-rule:nonzero;fill:#1e466a;fill-opacity:1;" d="M 91.515625 46.382812 C 84.675781 58.484375 93.617188 64.953125 93.617188 64.953125 L 112.558594 64.953125 C 114.941406 64.054688 120.203125 58.730469 123.605469 50.839844 C 127.011719 42.949219 115.1875 18.222656 115.1875 18.222656 C 120.203125 11.90625 133.230469 14.785156 133.230469 14.785156 L 133.230469 28.21875 L 125.710938 26.113281 L 136.511719 48.210938 L 116.519531 72.410156 L 46.515625 72.410156 L 61 46.382812 Z M 91.515625 46.382812 "/><path style=" stroke:none;fill-rule:nonzero;fill:#f49619;fill-opacity:1;" d="M 133.230469 72.410156 C 133.230469 68.292969 136.574219 64.953125 140.691406 64.953125 C 144.804688 64.953125 148.148438 68.292969 148.148438 72.410156 C 148.148438 76.527344 144.804688 79.867188 140.691406 79.867188 C 136.574219 79.867188 133.230469 76.527344 133.230469 72.410156 Z M 63.878906 79.867188 C 67.996094 79.867188 71.335938 76.527344 71.335938 72.410156 C 71.335938 68.292969 67.996094 64.953125 63.878906 64.953125 C 59.761719 64.953125 56.421875 68.292969 56.421875 72.410156 C 56.421875 76.527344 59.761719 79.867188 63.878906 79.867188 Z M 63.878906 79.867188 "/><path style=" stroke:none;fill-rule:nonzero;fill:#dadada;fill-opacity:1;" d="M 96.496094 46.382812 L 54.160156 46.382812 L 54.160156 38.214844 L 96.527344 38.214844 L 96.527344 46.382812 Z M 66.261719 50.839844 C 54.84375 50.839844 42.835938 60.679688 42.835938 72.8125 L 84.148438 72.8125 C 84.148438 57.957031 81.394531 50.839844 66.261719 50.839844 Z M 66.261719 50.839844 "/><g clip-rule="nonzero" clip-path="url(#f93e432696)"><path style=" stroke:none;fill-rule:nonzero;fill:#f49619;fill-opacity:1;" d="M 48.898438 49.042969 L 23.367188 49.042969 C 22.90625 49.042969 22.53125 48.671875 22.53125 48.210938 C 22.53125 47.746094 22.90625 47.375 23.367188 47.375 L 48.898438 47.375 C 49.363281 47.375 49.734375 47.746094 49.734375 48.210938 C 49.734375 48.671875 49.363281 49.042969 48.898438 49.042969 Z M 41.316406 55.046875 C 41.316406 54.585938 40.945312 54.214844 40.480469 54.214844 L 1.796875 54.214844 C 1.335938 54.214844 0.960938 54.585938 0.960938 55.046875 C 0.960938 55.511719 1.335938 55.882812 1.796875 55.882812 L 40.480469 55.882812 C 40.945312 55.882812 41.316406 55.511719 41.316406 55.046875 Z M 49.734375 66.902344 C 49.734375 66.4375 49.363281 66.066406 48.898438 66.066406 L 17.054688 66.066406 C 16.589844 66.066406 16.21875 66.4375 16.21875 66.902344 C 16.21875 67.367188 16.589844 67.738281 17.054688 67.738281 L 48.898438 67.738281 C 49.363281 67.738281 49.734375 67.367188 49.734375 66.902344 Z M 57.253906 61.824219 C 57.253906 61.363281 56.882812 60.992188 56.421875 60.992188 L 27.855469 60.992188 C 27.390625 60.992188 27.019531 61.363281 27.019531 61.824219 C 27.019531 62.289062 27.390625 62.660156 27.855469 62.660156 L 56.421875 62.660156 C 56.882812 62.660156 57.253906 62.289062 57.253906 61.824219 Z M 47.105469 30.601562 C 47.105469 30.136719 46.734375 29.765625 46.269531 29.765625 L 9.441406 29.765625 C 8.976562 29.765625 8.605469 30.136719 8.605469 30.601562 C 8.605469 31.0625 8.976562 31.4375 9.441406 31.4375 L 46.269531 31.4375 C 46.734375 31.4375 47.105469 31.0625 47.105469 30.601562 Z M 43.671875 23.234375 C 43.671875 22.769531 43.296875 22.398438 42.835938 22.398438 L 29.683594 22.398438 C 29.21875 22.398438 28.847656 22.769531 28.847656 23.234375 C 28.847656 23.699219 29.21875 24.070312 29.683594 24.070312 L 42.835938 24.070312 C 43.296875 24.070312 43.671875 23.699219 43.671875 23.234375 Z M 43.671875 23.234375 "/></g><g clip-rule="nonzero" clip-path="url(#83e642a07c)"><path style=" stroke:none;fill-rule:nonzero;fill:#f49619;fill-opacity:1;" d="M 103.089844 35.027344 L 47.570312 35.027344 C 47.570312 20.667969 58.460938 8.84375 72.449219 7.421875 C 71.894531 6.769531 71.554688 5.902344 71.554688 4.976562 C 71.554688 2.902344 73.253906 1.199219 75.328125 1.199219 C 77.402344 1.199219 79.105469 2.902344 79.105469 4.976562 C 79.105469 5.902344 78.765625 6.738281 78.207031 7.421875 C 92.195312 8.84375 103.089844 20.667969 103.089844 35.027344 Z M 103.089844 35.027344 "/></g><g clip-rule="nonzero" clip-path="url(#e0335387fc)"><g transform="matrix(1,0,0,1,170,6)"><g id="569a12565f" clip-path="url(#b0a09f0d57)"><g style="fill:#1e466a;fill-opacity:1;"><g transform="translate(1.049805, 61.808086)"><path style="stroke:none" d="M 0.984375 0 L 17.765625 -47.375 L 30.796875 -47.375 L 47.578125 0 L 35 0 L 31.84375 -9.171875 L 16.90625 -9.171875 L 13.703125 0 Z M 19.59375 -20.046875 L 28.96875 -20.046875 L 24.3125 -35.1875 Z M 19.59375 -20.046875 "/></g></g><g style="fill:#1e466a;fill-opacity:1;"><g transform="translate(49.61036, 61.808086)"><path style="stroke:none" d="M 4.421875 -47.375 L 17.171875 -47.375 L 17.171875 -10.484375 L 36.109375 -10.484375 L 36.109375 0 L 4.421875 0 Z M 4.421875 -47.375 "/></g></g><g style="fill:#1e466a;fill-opacity:1;"><g transform="translate(87.488903, 61.808086)"><path style="stroke:none" d="M 0.984375 -36.171875 L 0.984375 -47.375 L 40.765625 -47.375 L 40.765625 -36.171875 L 27.203125 -36.171875 L 27.203125 0 L 14.421875 0 L 14.421875 -36.171875 Z M 0.984375 -36.171875 "/></g></g><g style="fill:#1e466a;fill-opacity:1;"><g transform="translate(129.233946, 61.808086)"><path style="stroke:none" d="M 25.78125 0.65625 C 21.082031 0.65625 17.015625 -0.34375 13.578125 -2.34375 C 10.140625 -4.34375 7.476562 -7.15625 5.59375 -10.78125 C 3.71875 -14.40625 2.78125 -18.675781 2.78125 -23.59375 C 2.78125 -28.53125 3.734375 -32.828125 5.640625 -36.484375 C 7.554688 -40.140625 10.238281 -42.976562 13.6875 -45 C 17.144531 -47.019531 21.175781 -48.03125 25.78125 -48.03125 C 30.375 -48.03125 34.382812 -47.019531 37.8125 -45 C 41.238281 -42.976562 43.898438 -40.140625 45.796875 -36.484375 C 47.703125 -32.828125 48.65625 -28.53125 48.65625 -23.59375 C 48.65625 -18.695312 47.71875 -14.429688 45.84375 -10.796875 C 43.976562 -7.160156 41.332031 -4.34375 37.90625 -2.34375 C 34.476562 -0.34375 30.4375 0.65625 25.78125 0.65625 Z M 25.78125 -9.5625 C 27.53125 -9.5625 29.085938 -10.003906 30.453125 -10.890625 C 31.816406 -11.773438 32.882812 -13.226562 33.65625 -15.25 C 34.4375 -17.269531 34.828125 -19.984375 34.828125 -23.390625 C 34.828125 -26.910156 34.4375 -29.722656 33.65625 -31.828125 C 32.882812 -33.941406 31.816406 -35.46875 30.453125 -36.40625 C 29.085938 -37.34375 27.53125 -37.8125 25.78125 -37.8125 C 24.039062 -37.8125 22.484375 -37.34375 21.109375 -36.40625 C 19.742188 -35.46875 18.664062 -33.941406 17.875 -31.828125 C 17.09375 -29.722656 16.703125 -26.910156 16.703125 -23.390625 C 16.703125 -19.984375 17.09375 -17.269531 17.875 -15.25 C 18.664062 -13.226562 19.742188 -11.773438 21.109375 -10.890625 C 22.484375 -10.003906 24.039062 -9.5625 25.78125 -9.5625 Z M 25.78125 -9.5625 "/></g></g></g></g></g></g></g></g></svg>

